<svg width="30" height="30" viewBox="0 0 30 30" fill="none" xmlns="http://www.w3.org/2000/svg">
<circle cx="15.0667" cy="14.7747" r="14.219" stroke="#1F1F1F" stroke-width="0.5"/>
<g clip-path="url(#clip0)">
<path d="M20.8542 14.4482H20.3822L19.6788 14.8183C19.5996 14.7746 19.5172 14.7376 19.4284 14.7154L18.5436 14.4939V14.3933C18.935 14.1201 19.1739 13.6688 19.1739 13.188V12.8209C19.1739 12.0049 18.5345 11.3221 17.7488 11.2983C17.7089 11.2973 17.6696 11.2987 17.6301 11.3006L17.8595 10.7636L16.7473 9.65167L16.0917 10.0784C15.8436 9.93858 15.5797 9.82909 15.3055 9.75228L15.1435 8.9873H13.5429L13.3809 9.75249C13.1067 9.82925 12.8428 9.93874 12.5947 10.0786L11.9391 9.65185L10.8278 10.7632L11.0533 11.3006C11.0447 11.3003 11.0365 11.2987 11.0279 11.2985C10.6257 11.2868 10.2468 11.4336 9.95905 11.7129C9.67085 11.9921 9.51231 12.3668 9.51231 12.7679V13.188C9.51231 13.6688 9.75096 14.1199 10.1424 14.3931V14.4939L9.56523 14.6382L8.51905 14.0281H7.83203V18.3803L9.89832 19.0689H10.3007L10.351 18.893L10.9844 19.2731C10.9948 19.6175 11.2709 19.8946 11.615 19.9067C11.6271 20.2493 11.9025 20.5247 12.2451 20.5368C12.2572 20.8794 12.5326 21.1549 12.8752 21.1669C12.8877 21.5176 13.1749 21.7994 13.5284 21.7994C13.6597 21.7994 13.7884 21.7585 13.8966 21.6856L14.0826 21.8499C14.1994 21.9527 14.3496 22.0094 14.5052 22.0094H14.5441C14.8936 22.0094 15.178 21.7269 15.1824 21.3785C15.5281 21.3741 15.8081 21.0941 15.8125 20.7484C16.1584 20.744 16.4386 20.4636 16.4426 20.1177C16.7917 20.1095 17.0735 19.8243 17.0735 19.4732C17.0735 19.4521 17.0725 19.4313 17.0704 19.4103L20.8542 17.5185V14.4482ZM18.7538 12.8209V13.188C18.7538 13.5608 18.5524 13.9091 18.2281 14.0968L18.1231 14.1576L18.1239 14.8222L19.1733 15.0843L16.8635 16.3V15.7343C16.8635 15.4519 16.7495 15.1934 16.5627 15.0023L17.2836 14.8222V14.157L17.1788 14.0964C16.8547 13.9091 16.6535 13.5608 16.6535 13.188V12.7679C16.6535 12.4815 16.7667 12.2136 16.9725 12.0142C17.1781 11.8148 17.4509 11.7073 17.7361 11.7184C18.2972 11.7352 18.7538 12.2298 18.7538 12.8209ZM14.6598 16.1349L13.709 15.8311C13.2757 15.6922 12.8067 15.6715 12.3632 15.7697L12.2428 15.7964V15.7342C12.2428 15.4447 12.4391 15.1932 12.7199 15.1228L13.923 14.8222V14.157L13.8182 14.0964C13.4941 13.9091 13.2929 13.5608 13.2929 13.188V12.7679C13.2929 12.4815 13.4062 12.2136 13.612 12.0142C13.8176 11.8148 14.0922 11.7073 14.3756 11.7184C14.9367 11.7352 15.3933 12.2298 15.3933 12.8209V13.188C15.3933 13.5608 15.1918 13.9091 14.8676 14.0968L14.7626 14.1576L14.7633 14.8222L15.9662 15.1228C16.1026 15.1569 16.2237 15.2355 16.3101 15.3463C16.3966 15.4571 16.4435 15.5937 16.4434 15.7342V16.5212L16.3915 16.5485H16.2628L14.9715 16.1795C14.8698 16.1507 14.765 16.1389 14.6598 16.1349ZM12.2898 12.1308C12.6842 11.3666 13.4781 10.8776 14.3431 10.8776C15.1998 10.8776 15.9903 11.36 16.3878 12.1139C16.2862 12.317 16.2333 12.5409 16.2334 12.7679V13.188C16.2334 13.6688 16.4721 14.1199 16.8635 14.3931V14.4939L16.0234 14.7043L15.183 14.4939V14.3933C15.5745 14.1201 15.8133 13.6688 15.8133 13.188V12.8209C15.8133 12.0049 15.174 11.3221 14.3882 11.2983C13.9862 11.2865 13.6072 11.4334 13.3194 11.7127C13.0314 11.9921 12.8729 12.3667 12.8729 12.7679V13.188C12.8729 13.6688 13.1115 14.1199 13.503 14.3931V14.4939L12.6628 14.7043L11.8225 14.4939V14.3933C12.2139 14.1201 12.4528 13.6688 12.4528 13.188V12.8209C12.4528 12.5737 12.3933 12.339 12.2898 12.1308ZM11.3239 10.8606L11.9949 10.1896L12.5855 10.5739L12.6985 10.5046C12.9817 10.3311 13.2877 10.204 13.608 10.1274L13.7372 10.0964L13.8833 9.40737H14.8031L14.9488 10.0962L15.078 10.1271C15.3983 10.2038 15.7043 10.3309 15.9875 10.5044L16.1005 10.5737L16.6911 10.1894L17.3613 10.8598L17.1231 11.4176C16.9609 11.4873 16.8105 11.5855 16.6797 11.7123C16.6711 11.7207 16.6637 11.7297 16.6553 11.7384C16.1605 10.9518 15.2857 10.4575 14.3431 10.4575C13.3937 10.4575 12.5165 10.9564 12.0229 11.751C11.8908 11.6127 11.7337 11.5007 11.5595 11.4225L11.3239 10.8606ZM10.5625 14.8222V14.157L10.4577 14.0964C10.1336 13.9091 9.93237 13.5608 9.93237 13.188V12.7679C9.93237 12.4815 10.0456 12.2136 10.2514 12.0142C10.457 11.8148 10.7305 11.7073 11.015 11.7184C11.5761 11.7352 12.0327 12.2298 12.0327 12.8209V13.188C12.0327 13.5608 11.8313 13.9091 11.507 14.0968L11.402 14.1576L11.4028 14.8222L12.1235 15.0023C11.9367 15.1933 11.8227 15.4519 11.8227 15.7342V15.8898L11.1676 16.0354L11.1846 15.9759L11.1926 15.5878L10.0849 14.9416L10.5625 14.8222ZM8.2521 14.4482H8.40521L9.91575 15.3293L9.15357 18.3779L8.2521 18.0773V14.4482ZM9.96643 18.6489L9.55303 18.5112L10.2935 15.5497L10.7725 15.829V15.889L9.98407 18.6489H9.96643ZM11.4026 19.2535C11.4028 19.1911 11.4275 19.1313 11.4715 19.087L11.8407 18.7178C11.885 18.6738 11.9448 18.649 12.0072 18.6489C12.1371 18.6489 12.2427 18.7545 12.2427 18.8844C12.2426 18.9468 12.2178 19.0066 12.1738 19.0509L11.8046 19.4201C11.7603 19.4641 11.7005 19.4888 11.6381 19.489C11.5083 19.489 11.4026 19.3834 11.4026 19.2535H11.4026ZM12.0327 19.8836C12.0329 19.8212 12.0576 19.7614 12.1016 19.7171L12.4708 19.3479C12.5151 19.3039 12.5749 19.2791 12.6374 19.279C12.7672 19.279 12.8728 19.3846 12.8728 19.5145C12.8727 19.5769 12.8479 19.6367 12.8039 19.681L12.4347 20.0502C12.3904 20.0942 12.3306 20.119 12.2682 20.1191C12.1384 20.1191 12.0327 20.0135 12.0327 19.8836H12.0327ZM12.6628 20.5137C12.663 20.4513 12.6877 20.3915 12.7317 20.3472L13.101 19.978C13.1452 19.934 13.205 19.9092 13.2675 19.9091C13.3973 19.9091 13.5029 20.0147 13.5029 20.1446C13.5028 20.207 13.478 20.2668 13.434 20.3111L13.0648 20.6803C13.0205 20.7243 12.9607 20.7491 12.8983 20.7492C12.7685 20.7492 12.6628 20.6436 12.6628 20.5137H12.6628ZM13.5284 21.3793C13.3985 21.3793 13.2929 21.2737 13.2929 21.1439C13.2931 21.0814 13.3178 21.0216 13.3618 20.9773L13.7311 20.6081C13.7753 20.5641 13.8351 20.5394 13.8976 20.5392C14.0274 20.5392 14.133 20.6448 14.133 20.7747C14.1329 20.8371 14.1081 20.8969 14.0641 20.9412L13.6949 21.3104C13.6506 21.3544 13.5908 21.3792 13.5284 21.3793H13.5284ZM14.5441 21.5894H14.5052C14.4519 21.5894 14.4004 21.5699 14.3605 21.5345L14.2034 21.3959L14.3611 21.2382C14.4174 21.1819 14.4612 21.1149 14.4935 21.043L14.6844 21.202C14.7091 21.2225 14.7289 21.2483 14.7426 21.2774C14.7562 21.3065 14.7632 21.3382 14.7632 21.3703C14.7632 21.4911 14.6649 21.5894 14.5441 21.5894ZM16.4276 19.6991H16.3913C16.3385 19.699 16.2874 19.6804 16.2468 19.6465L15.1079 18.6974L14.8387 19.0202L15.9448 19.9418C15.9694 19.9624 15.9892 19.9881 16.0028 20.0172C16.0164 20.0463 16.0234 20.078 16.0234 20.1101C16.0234 20.2309 15.9251 20.3292 15.8043 20.3292H15.7585C15.7073 20.3291 15.6577 20.3111 15.6184 20.2783L14.4775 19.3277L14.2084 19.6505L15.3145 20.5722C15.3392 20.5927 15.3591 20.6183 15.3727 20.6474C15.3863 20.6764 15.3933 20.7081 15.3933 20.7402C15.3933 20.861 15.295 20.9593 15.1742 20.9593C15.0936 20.9593 15.015 20.9306 14.9532 20.8793L14.4844 20.4885C14.3811 20.2775 14.1689 20.1303 13.9205 20.1215C13.9083 19.7789 13.633 19.5035 13.2904 19.4914C13.2782 19.1488 13.0029 18.8734 12.6603 18.8613C12.6479 18.5106 12.3608 18.2288 12.0073 18.2288C11.8347 18.2288 11.6658 18.2988 11.5437 18.4208L11.1745 18.79C11.1525 18.8121 11.1342 18.8371 11.1157 18.8619L10.4705 18.4747L11.0361 16.4952L12.454 16.18C12.826 16.0968 13.2181 16.1148 13.5809 16.2309L13.8903 16.3299L12.8414 16.8543C12.6017 16.9745 12.4528 17.2156 12.4528 17.4837V17.5252C12.4528 17.9132 12.7684 18.2288 13.1564 18.2288C13.2839 18.2288 13.4093 18.1942 13.5183 18.1284L14.3004 17.6594C14.4575 17.5653 14.6684 17.5859 14.8041 17.7079L16.5787 19.305C16.6022 19.3263 16.621 19.3523 16.6339 19.3812C16.6467 19.4102 16.6534 19.4415 16.6535 19.4732C16.6535 19.5978 16.5523 19.6991 16.4276 19.6991ZM20.4341 17.2588L16.8956 19.0282C16.8841 19.016 16.872 19.0043 16.8595 18.9932L15.0852 17.3961C14.93 17.2559 14.7283 17.1784 14.5193 17.1786C14.366 17.1787 14.2156 17.2204 14.0841 17.2993L13.3017 17.7684C13.2579 17.7948 13.2076 17.8088 13.1564 17.8087C12.9999 17.8087 12.8729 17.6817 12.8729 17.5252V17.4836C12.8729 17.3755 12.933 17.2784 13.0296 17.2301L14.2012 16.6443C14.4016 16.5439 14.6397 16.5214 14.8558 16.5836L16.1757 16.9606L16.4953 16.9686L20.4341 14.8956V17.2588Z" fill="#272727"/>
</g>
<defs>
<clipPath id="clip0">
<rect width="13.0221" height="13.0221" fill="white" transform="translate(7.83203 8.9873)"/>
</clipPath>
</defs>
</svg>
