<svg width="30" height="30" viewBox="0 0 30 30" fill="none" xmlns="http://www.w3.org/2000/svg">
<circle cx="15.0667" cy="15.0266" r="14.219" stroke="#1F1F1F" stroke-width="0.5"/>
<path d="M20.7391 12.1126L14.4316 9.25822C14.404 9.24574 14.3737 9.23926 14.3431 9.23926C14.3125 9.23926 14.2822 9.24574 14.2546 9.25822L7.94705 12.1126C7.91258 12.1282 7.88351 12.1525 7.86317 12.1829C7.84282 12.2133 7.83203 12.2485 7.83203 12.2843V19.2163C7.83203 19.2522 7.84282 19.2873 7.86317 19.3177C7.88351 19.3481 7.91258 19.3725 7.94705 19.3881L14.2546 22.2424C14.2822 22.2549 14.3125 22.2614 14.3431 22.2614C14.3737 22.2614 14.404 22.2549 14.4316 22.2424L20.7391 19.3881C20.7736 19.3725 20.8027 19.3481 20.823 19.3177C20.8434 19.2873 20.8542 19.2522 20.8542 19.2163V12.2844C20.8542 12.2485 20.8434 12.2133 20.823 12.1829C20.8027 12.1526 20.7736 12.1282 20.7391 12.1126ZM14.3431 9.64184L20.1826 12.2843L18.4898 13.0504C18.4791 13.0425 18.4676 13.0357 18.4554 13.03L12.6556 10.4055L14.3431 9.64184ZM12.196 10.6212L18.027 13.2598L16.8327 13.8003L11.0041 11.1627L12.196 10.6212ZM18.1634 13.6217V15.6194L17.0479 16.1242V14.1265L18.1634 13.6217ZM20.4472 19.0966L14.5466 21.7667V15.2584L15.9541 14.6215C15.9781 14.6106 15.9997 14.5954 16.0175 14.5767C16.0352 14.558 16.0489 14.5362 16.0577 14.5125C16.0665 14.4889 16.0703 14.4638 16.0688 14.4388C16.0672 14.4138 16.0605 14.3893 16.0488 14.3668C16.0372 14.3442 16.021 14.324 16.001 14.3073C15.9811 14.2907 15.9578 14.2778 15.9326 14.2696C15.9074 14.2613 15.8806 14.2578 15.854 14.2593C15.8273 14.2607 15.8012 14.267 15.7771 14.2779L14.3431 14.9269L13.7788 14.6715C13.7548 14.6606 13.7287 14.6543 13.702 14.6528C13.6753 14.6514 13.6486 14.6549 13.6233 14.6631C13.5981 14.6714 13.5748 14.6842 13.5549 14.7009C13.535 14.7176 13.5187 14.7378 13.5071 14.7603C13.4955 14.7829 13.4887 14.8074 13.4872 14.8324C13.4857 14.8574 13.4894 14.8825 13.4982 14.9061C13.507 14.9298 13.5207 14.9516 13.5385 14.9702C13.5563 14.9889 13.5778 15.0042 13.6019 15.0151L14.1396 15.2584V21.7667L8.23903 19.0966V12.5882L12.7323 14.6216C12.7598 14.6341 12.79 14.6406 12.8206 14.6406C12.8667 14.6406 12.9115 14.626 12.9475 14.5991C12.9836 14.5722 13.0089 14.5346 13.0192 14.4924C13.0295 14.4503 13.0242 14.4061 13.0042 14.3672C12.9842 14.3282 12.9507 14.2968 12.9092 14.278L8.5036 12.2843L10.5251 11.3695L16.6381 14.1358C16.639 14.137 16.64 14.138 16.6409 14.1391V16.4282C16.6409 16.4605 16.6497 16.4922 16.6663 16.5205C16.683 16.5487 16.7071 16.5725 16.7362 16.5897C16.7654 16.6069 16.7987 16.6168 16.8331 16.6186C16.8675 16.6204 16.9018 16.614 16.9329 16.5999L18.4554 15.911C18.4898 15.8954 18.5189 15.871 18.5393 15.8406C18.5596 15.8102 18.5704 15.7751 18.5704 15.7392V13.4376L20.4472 12.5883V19.0966Z" fill="#272727"/>
<path d="M9.91846 18.3572L8.99282 17.9383C8.94421 17.9163 8.88828 17.9133 8.83732 17.93C8.78636 17.9466 8.74455 17.9816 8.72108 18.0271C8.69761 18.0727 8.69441 18.1251 8.71219 18.1729C8.72996 18.2207 8.76725 18.2598 8.81585 18.2818L9.7415 18.7007C9.76903 18.7132 9.79922 18.7197 9.82982 18.7197C9.86812 18.7198 9.90564 18.7096 9.93809 18.6906C9.97053 18.6715 9.99657 18.6442 10.0132 18.6119C10.0248 18.5893 10.0316 18.5648 10.0331 18.5398C10.0347 18.5148 10.0309 18.4898 10.0221 18.4661C10.0133 18.4425 9.99964 18.4207 9.98185 18.402C9.96407 18.3833 9.94253 18.368 9.91846 18.3572Z" fill="#272727"/>
<path d="M10.7701 17.8367L8.99382 17.0328C8.94533 17.0117 8.8899 17.0093 8.83953 17.0261C8.78915 17.0429 8.74787 17.0777 8.72461 17.1229C8.70136 17.168 8.69801 17.2199 8.71527 17.2674C8.73254 17.3148 8.76904 17.354 8.81689 17.3764L10.5932 18.1802C10.6207 18.1927 10.6509 18.1993 10.6815 18.1993C10.7276 18.1993 10.7724 18.1847 10.8085 18.1578C10.8446 18.1309 10.8698 18.0933 10.8801 18.0511C10.8904 18.009 10.8852 17.9648 10.8652 17.9258C10.8452 17.8869 10.8116 17.8554 10.7701 17.8367Z" fill="#272727"/>
</svg>
