<svg width="29" height="29" viewBox="0 0 29 29" fill="none" xmlns="http://www.w3.org/2000/svg">
<circle cx="14.469" cy="14.469" r="14.219" stroke="#242424" stroke-width="0.5"/>
<path d="M20.6555 18.0256L18.0249 16.2714C17.6911 16.0505 17.2436 16.1232 16.9968 16.4384L16.2306 17.4236C16.1321 17.5534 15.9531 17.5911 15.8106 17.5119L15.6649 17.4316C15.1817 17.1682 14.5805 16.8403 13.3692 15.6286C12.1579 14.4168 11.8293 13.8152 11.566 13.3329L11.486 13.1871C11.4058 13.0447 11.4428 12.8649 11.5727 12.7657L12.5572 11.9996C12.8722 11.7528 12.945 11.3055 12.7244 10.9715L10.9701 8.34101C10.7441 8.00097 10.2905 7.89889 9.94057 8.10926L8.84058 8.77003C8.49495 8.97322 8.24138 9.3023 8.13303 9.68831C7.73693 11.1316 8.03491 13.6224 11.7042 17.2921C14.623 20.2107 16.7959 20.9955 18.2894 20.9955C18.6331 20.997 18.9755 20.9523 19.3073 20.8626C19.6934 20.7544 20.0225 20.5008 20.2256 20.155L20.887 19.0557C21.0977 18.7057 20.9957 18.2518 20.6555 18.0256ZM20.5138 18.8335L19.8539 19.9335C19.7081 20.183 19.4714 20.3665 19.1933 20.4455C17.861 20.8113 15.5332 20.5083 12.0106 16.9856C8.48797 13.463 8.18501 11.1355 8.55081 9.8029C8.6299 9.52453 8.8136 9.2875 9.06344 9.14147L10.1634 8.48156C10.3153 8.39019 10.5121 8.43448 10.6102 8.58204L11.5632 10.0127L12.363 11.2124C12.4588 11.3572 12.4273 11.5513 12.2907 11.6585L11.3059 12.4245C11.0062 12.6537 10.9206 13.0683 11.1051 13.3974L11.1833 13.5395C11.4601 14.0471 11.8043 14.6787 13.0606 15.9348C14.317 17.1909 14.9483 17.5351 15.4557 17.8119L15.598 17.8903C15.9271 18.0748 16.3417 17.9892 16.5709 17.6895L17.3369 16.7047C17.4441 16.5682 17.6382 16.5367 17.7831 16.6324L20.4134 18.3867C20.561 18.4847 20.6053 18.6816 20.5138 18.8335Z" fill="#313131"/>
<path d="M15.3644 10.1667C17.3968 10.169 19.0439 11.8161 19.0462 13.8485C19.0462 13.9681 19.1431 14.0651 19.2627 14.0651C19.3824 14.0651 19.4793 13.9681 19.4793 13.8485C19.4768 11.5769 17.636 9.73607 15.3644 9.73358C15.2447 9.73358 15.1478 9.83053 15.1478 9.95015C15.1478 10.0698 15.2447 10.1667 15.3644 10.1667Z" fill="#313131"/>
<path d="M15.3644 11.4662C16.6795 11.4677 17.7452 12.5334 17.7467 13.8485C17.7467 13.9681 17.8437 14.0651 17.9633 14.0651C18.0829 14.0651 18.1798 13.9681 18.1798 13.8485C18.178 12.2943 16.9186 11.0348 15.3644 11.0331C15.2447 11.0331 15.1478 11.13 15.1478 11.2496C15.1478 11.3692 15.2447 11.4662 15.3644 11.4662Z" fill="#313131"/>
<path d="M15.3644 12.7656C15.9621 12.7663 16.4465 13.2507 16.4473 13.8485C16.4473 13.9681 16.5442 14.0651 16.6638 14.0651C16.7834 14.0651 16.8804 13.9681 16.8804 13.8485C16.8794 13.0116 16.2012 12.3334 15.3644 12.3325C15.2447 12.3325 15.1478 12.4294 15.1478 12.5491C15.1478 12.6687 15.2447 12.7656 15.3644 12.7656Z" fill="#313131"/>
</svg>
