<svg width="30" height="29" viewBox="0 0 30 29" fill="none" xmlns="http://www.w3.org/2000/svg">
<circle cx="15.0667" cy="14.469" r="14.219" stroke="#1F1F1F" stroke-width="0.5"/>
<g clip-path="url(#clip0)">
<path d="M20.7026 13.6539L19.2274 12.4738V9.90241C19.2274 9.67748 19.0454 9.49547 18.8204 9.49547H17.1935C16.9689 9.49547 16.7865 9.67748 16.7865 9.902L16.7861 10.5208L14.5984 8.77059C14.4497 8.65216 14.2383 8.65216 14.0897 8.77059L7.98547 13.654C7.85075 13.7621 7.7987 13.9437 7.85592 14.1066C7.91314 14.2696 8.06696 14.3788 8.23981 14.3788H9.46064V21.2969C9.46064 21.5219 9.64264 21.7039 9.86758 21.7039H18.8204C19.0454 21.7039 19.2274 21.5219 19.2274 21.2969V14.3788H20.4482C20.6211 14.3788 20.7749 14.2696 20.8321 14.1066C20.8894 13.9437 20.8373 13.7621 20.7026 13.6539ZM17.5996 11.1237L17.6 10.3094H18.4135V11.8227L17.5397 11.1236C17.5396 11.1236 17.5996 11.1237 17.5996 11.1237ZM13.5301 20.89V17.6344H15.1579V20.89H13.5301ZM18.8204 13.5649C18.5955 13.5649 18.4135 13.7469 18.4135 13.9719V20.89H15.9718V17.2274C15.9718 17.0025 15.7898 16.8205 15.5649 16.8205H13.1232C12.8983 16.8205 12.7163 17.0025 12.7163 17.2274V20.89H10.2745V13.9719C10.2745 13.7469 10.0925 13.5649 9.86761 13.5649H9.39983L14.344 9.60954L19.2882 13.565C19.2882 13.5649 18.8204 13.5649 18.8204 13.5649Z" fill="#272727"/>
</g>
<defs>
<clipPath id="clip0">
<rect width="13.0221" height="13.0221" fill="white" transform="translate(7.83234 8.68176)"/>
</clipPath>
</defs>
</svg>
