<svg width="29" height="29" viewBox="0 0 29 29" fill="none" xmlns="http://www.w3.org/2000/svg">
<circle cx="14.469" cy="14.469" r="14.219" stroke="#242424" stroke-width="0.5"/>
<path d="M12.6745 12.1172C12.8612 12.4908 13.2366 12.7228 13.6542 12.7228C14.0718 12.7228 14.4473 12.4908 14.634 12.1172L14.6611 12.0627L14.1985 11.8312L14.1714 11.8861C14.0729 12.0831 13.8748 12.2056 13.6542 12.2056C13.4337 12.2056 13.2356 12.0831 13.1371 11.8861L13.1099 11.8315L12.6474 12.0629L12.6745 12.1172Z" fill="#313131"/>
<path d="M14.6885 10.9128C14.8313 10.9128 14.9471 10.7971 14.9471 10.6543C14.9471 10.5115 14.8313 10.3957 14.6885 10.3957C14.5457 10.3957 14.43 10.5115 14.43 10.6543C14.43 10.7971 14.5457 10.9128 14.6885 10.9128Z" fill="#313131"/>
<path d="M12.62 10.9128C12.7628 10.9128 12.8785 10.7971 12.8785 10.6543C12.8785 10.5115 12.7628 10.3957 12.62 10.3957C12.4772 10.3957 12.3614 10.5115 12.3614 10.6543C12.3614 10.7971 12.4772 10.9128 12.62 10.9128Z" fill="#313131"/>
<path d="M19.8599 12.7228C19.366 12.7228 18.9515 13.0711 18.8497 13.5347C18.5363 13.6342 18.3085 13.9282 18.3085 14.2742V14.3187C18.3085 14.5258 18.3894 14.7208 18.5358 14.8671L18.8256 15.157V16.6016L17.8912 15.3558C17.5036 14.8387 16.9908 14.4301 16.4114 14.1607C17.1064 13.671 17.5328 12.8707 17.5328 11.9949C17.5328 11.5851 17.4361 11.1753 17.253 10.8094L17.2409 10.7851C17.0935 10.4906 17.0156 10.1606 17.0156 9.8307V9.3614C17.0156 7.50797 15.5077 6 13.6542 6C11.8008 6 10.2928 7.50797 10.2928 9.3614V9.8307C10.2928 10.1604 10.215 10.4906 10.0676 10.7848L10.0555 10.8094C9.87241 11.1753 9.77571 11.5851 9.77571 11.9949C9.77571 12.9149 10.2585 13.7591 11.0174 14.238C9.81398 14.9085 9 16.1943 9 17.6454V18.7586C9 19.6623 9.7002 20.4038 10.5863 20.4731C10.2378 20.8113 10.0343 21.2822 10.0343 21.7727V22.0313H17.2742V21.7727C17.2742 21.2062 17.0035 20.6647 16.5502 20.3247L16.2699 20.1145L16.6309 18.4899C16.6723 18.3035 16.7035 18.1145 16.7245 17.9242L17.9462 19.3698C18.2645 19.7468 18.7299 19.9627 19.2228 19.9627C20.1446 19.9627 20.8942 19.2131 20.8942 18.2913V13.7571C20.8942 13.1867 20.4303 12.7228 19.8599 12.7228ZM18.8256 14.2742C18.8256 14.1315 18.9415 14.0156 19.0842 14.0156H19.3428V13.7571C19.3428 13.4719 19.5747 13.2399 19.8599 13.2399C20.1451 13.2399 20.377 13.4719 20.377 13.7571V14.7913H19.1912L18.9014 14.5015C18.853 14.4531 18.8256 14.3867 18.8256 14.3187V14.2742ZM10.2928 11.9949C10.2928 11.6652 10.3707 11.3351 10.5181 11.0408L10.5302 11.0165C10.7133 10.6506 10.81 10.2408 10.81 9.83096V9.3614C10.81 7.79318 12.086 6.51714 13.6542 6.51714C15.2225 6.51714 16.4985 7.79318 16.4985 9.3614V9.8307C16.4985 10.2405 16.5952 10.6504 16.7783 11.0162L16.7904 11.0405C16.9378 11.3351 17.0156 11.665 17.0156 11.9947C17.0156 12.8335 16.5275 13.5831 15.7696 13.9306C15.601 13.8856 15.4301 13.8476 15.2556 13.8258L14.8579 13.7762L14.7922 13.6449C15.4849 13.3907 15.9814 12.7267 15.9814 11.9471V9.3614H15.7228C15.0818 9.3614 14.9471 8.93941 14.9471 8.58569H14.4299C14.4299 8.85434 14.4954 9.12946 14.6428 9.35752C14.0442 9.33606 13.9128 8.9301 13.9128 8.58569H13.3957C13.3957 8.85383 13.4588 9.12946 13.6054 9.35726C13.0096 9.33451 12.8785 8.92959 12.8785 8.58569H12.3614C12.3614 8.7023 12.3733 8.82021 12.3986 8.93502L12.3663 8.94148C11.7641 9.06197 11.3271 9.59514 11.3271 10.2092V11.9471C11.3271 12.7267 11.8236 13.3909 12.5163 13.6451L12.4529 13.7721C12.1649 13.8054 11.8882 13.8737 11.6229 13.9668C10.8255 13.6407 10.2928 12.8606 10.2928 11.9949ZM15.2057 19.9627H11.9513L13.8815 18.0325C14.0685 17.8458 14.1714 17.5971 14.1714 17.3326C14.1714 16.787 13.7272 16.3428 13.1813 16.3428H13.0719C12.6991 16.3428 12.3632 16.5475 12.1923 16.8785C12.1615 16.8855 12.1323 16.8961 12.1028 16.9067V15.8256H15.2057V19.9627ZM12.1028 17.6356C12.1028 17.4929 12.2187 17.377 12.3614 17.377H12.5212L12.6489 17.1213C12.7296 16.9602 12.8917 16.8599 13.0719 16.8599H13.1813C13.4422 16.8599 13.6542 17.0719 13.6542 17.3326C13.6542 17.4569 13.6038 17.579 13.5159 17.6669L12.7493 18.4335L12.1028 17.7871V17.6356ZM12.6151 9.41906C12.8162 9.68926 13.148 9.87853 13.6542 9.87853V9.42552C13.8559 9.69236 14.1864 9.87853 14.6885 9.87853V9.42294C14.8532 9.64169 15.1027 9.80795 15.4642 9.86069V11.9471C15.4642 12.66 14.8843 13.2399 14.1714 13.2399H13.1371C12.4242 13.2399 11.8443 12.66 11.8443 11.9471V10.2092C11.8443 9.84052 12.1067 9.52068 12.4679 9.44853L12.6151 9.41906ZM13.0409 13.7522C13.073 13.754 13.1045 13.7571 13.1371 13.7571H14.1714C14.204 13.7571 14.2355 13.754 14.2676 13.7522L14.3901 13.997L13.6542 15.1009L12.9184 13.997L13.0409 13.7522ZM9.51714 18.7586V17.6454C9.51714 15.9389 10.8133 14.4961 12.4933 14.2918L13.1712 15.3085H11.5857V17.6356V17.7442L11.1216 18.0095C11.09 17.7876 11.0686 17.5648 11.0686 17.3411V17.1604C11.0686 16.6461 11.151 16.1375 11.3137 15.6488L10.8234 15.4851C10.6429 16.0265 10.5514 16.5902 10.5514 17.1604V17.3411C10.5514 17.6573 10.5817 17.9738 10.638 18.2856L9.90577 18.704L10.1623 19.1529L11.8008 18.2166L12.3834 18.7992L11.5725 19.61C11.3452 19.8376 11.043 19.9627 10.7213 19.9627C10.0573 19.9627 9.51714 19.4226 9.51714 18.7586ZM16.7304 21.5141H10.578C10.6411 21.2075 10.8149 20.9287 11.0688 20.7384L11.4132 20.4799H15.8953L16.2399 20.7384C16.4936 20.9287 16.6673 21.2075 16.7304 21.5141ZM19.2228 19.4456C18.8825 19.4456 18.5611 19.2964 18.3413 19.0363L16.7571 17.1614V17.1604C16.7571 16.5902 16.6655 16.0265 16.4851 15.4851L15.9948 15.6488C16.1574 16.1375 16.2399 16.6461 16.2399 17.1604V17.3411C16.2399 17.6896 16.2017 18.0382 16.1262 18.378L15.774 19.9627H15.7228V15.3085H14.1372L14.815 14.292L15.1914 14.3391C16.0969 14.4524 16.9303 14.9359 17.4774 15.6658L18.8256 17.4631V18.4113H19.3428V15.3085H20.377V18.2913C20.377 18.9277 19.8591 19.4456 19.2228 19.4456Z" fill="#313131"/>
</svg>
